<svg xmlns="http://www.w3.org/2000/svg" width="92" height="92" viewBox="0 0 92 92">
    <defs>
        <style>
            .cls-2{fill:#fff}
        </style>
    </defs>
    <g id="Group_3258" transform="translate(-259 -1924)">
        <circle id="Ellipse_92" cx="46" cy="46" r="46" fill="#100e41" transform="translate(259 1924)"/>
        <g id="Group_3257" transform="translate(251 1856)">
            <g id="icons" transform="translate(-8.12 -16.12)">
                <g id="Group_2025" transform="translate(37.12 105.12)">
                    <g id="Group_2024">
                        <path id="Path_4673" d="M83.885 105.147l-6.235 1.011A25.547 25.547 0 0 0 62 114.217l-6.987 7.655-9.519-.556a1.44 1.44 0 0 0-1.281.637l-4.79 7.152a1.439 1.439 0 0 0 .6 2.112l6.756 3.071 10.335 10.335 3.074 6.763a1.44 1.44 0 0 0 2.108.6l7.26-4.817a1.44 1.44 0 0 0 .641-1.3l-.635-9.515 7.623-6.958a25.547 25.547 0 0 0 8.059-15.647l1.011-6.235a2.067 2.067 0 0 0-2.37-2.367zM72.4 125.118a4.322 4.322 0 1 1 0-6.112 4.324 4.324 0 0 1 0 6.112z" class="cls-2" transform="translate(-36.212 -105.12)"/>
                        <path id="Path_4674" d="M54.377 135.928l-7.977-7.975a.567.567 0 0 0-.8-.009c-.432.418-1.029 1.006-1.242 1.219a25.6 25.6 0 0 0-7.242 16.046 25.6 25.6 0 0 0 16.046-7.242c.213-.213.8-.81 1.219-1.242a.567.567 0 0 0-.004-.797z" class="cls-2" transform="translate(-37.12 -95.135)"/>
                    </g>
                </g>
            </g>
        </g>
    </g>
</svg>
