<svg xmlns="http://www.w3.org/2000/svg" width="92" height="92" viewBox="0 0 92 92">
    <defs>
        <style>
            .cls-2{fill:#fff}
        </style>
    </defs>
    <g id="Group_2028" transform="translate(-182 -2143)">
        <g id="Group_2029">
            <circle id="Ellipse_56" cx="46" cy="46" r="46" fill="#100e41" transform="translate(182 2143)"/>
            <g id="Group_2033" transform="translate(170.121 1788.601)">
                <g id="Group_2032" transform="translate(41.668 375)">
                    <path id="Path_4675" d="M62.994 407.122H50.227a2.158 2.158 0 0 0-2.158 2.158v.311a2.158 2.158 0 0 0 2.158 2.158h2.117v.523a3.984 3.984 0 0 0 3.985 3.984h.571a3.984 3.984 0 0 0 3.985-3.984v-.523h2.108a2.158 2.158 0 0 0 2.158-2.158v-.311a2.158 2.158 0 0 0-2.157-2.158z" class="cls-2" transform="translate(-39.567 -364.459)"/>
                    <path id="Path_4676" d="M56.727 375.113c-7.181.81-14.089 7.684-14.937 14.861a16.982 16.982 0 0 0 4.682 13.911 10.9 10.9 0 0 1 3.061 7.6 2.623 2.623 0 0 0 2.623 2.623h13.11a2.622 2.622 0 0 0 2.622-2.623 10.751 10.751 0 0 1 3-7.536 17.033 17.033 0 0 0-14.164-28.833zm.324 32.428a1.66 1.66 0 0 1-3.32 0v-7.184a4.1 4.1 0 0 0-4.095-4.1 1.66 1.66 0 1 1 0-3.32 7.425 7.425 0 0 1 7.415 7.417zm10.736-11.28a4.1 4.1 0 0 0-4.095 4.1v7.184a1.66 1.66 0 0 1-3.32 0v-7.184a7.425 7.425 0 0 1 7.415-7.417 1.66 1.66 0 1 1 0 3.32z" class="cls-2" transform="translate(-41.668 -375)"/>
                </g>
            </g>
        </g>
    </g>
</svg>
