<svg xmlns="http://www.w3.org/2000/svg" width="194.087" height="36" viewBox="0 0 194.087 36">
    <defs>
        <style>
            .cls-1{fill:#fff}
        </style>
    </defs>
    <g id="Group_1926" transform="translate(-712 -494)">
        <g id="Group_1925" transform="translate(712 494)">
            <path id="Path_4523" d="M712 530v-36h194.087v36zm4.762-6.751h53.057v-24.081h-53.057zm88.889-19.723l.007.3a7.947 7.947 0 0 0 1.172.07c.685-.056.908.218.9.894q-.032 6.455 0 12.909c0 .627-.2.891-.851.849a8.1 8.1 0 0 0-1.215.094l.028.258h7.492l.017-.3-2.071-.142c0-2.1-.02-4.086.029-6.07.005-.215.381-.531.642-.607.614-.179.927.243 1.191.746q1.5 2.854 3.04 5.684c.161.3.428.74.667.753 1.336.073 2.678.035 3.859.035a22.287 22.287 0 0 1-1.494-1.923c-.943-1.523-1.82-3.086-2.717-4.637-.156-.27-.278-.558-.443-.893.395-.167.694-.282.983-.417a3.869 3.869 0 0 0 2.474-3.652 3.562 3.562 0 0 0-2.367-3.477 5.44 5.44 0 0 0-2.056-.526c-2.834-.072-5.671-.058-8.507-.065a5.074 5.074 0 0 0-.78.117zm77.857 15.489a15.557 15.557 0 0 1-1.334-1.6c-.828-1.325-1.591-2.691-2.378-4.042-.337-.578-.669-1.159-1.025-1.777.6-.284 1.081-.471 1.522-.731a3.764 3.764 0 0 0 .994-5.911 4.8 4.8 0 0 0-3.405-1.49c-2.835-.059-5.672-.049-8.508-.056a4.128 4.128 0 0 0-.741.133l.016.3 1.82.129v14.5l-1.833.15.02.4c2.447.029 4.893.023 7.34.006q0-.246.008-.492c-.4 0-.8-.028-1.19.007-.594.053-.825-.2-.821-.782q.018-2.591 0-5.184c-.005-.642.32-.963.9-.788a1.819 1.819 0 0 1 .982.76c1.07 1.9 2.066 3.843 3.118 5.754.156.283.461.67.714.684 1.279.067 2.566.03 3.801.03zm-101.764-.121l.056-.246a14.952 14.952 0 0 0-1.532-.1c-.571.016-.833-.166-.825-.774q.035-2.444 0-4.889c-.009-.611.263-.763.828-.773 1.04-.018 2.081-.081 3.116-.183a4.442 4.442 0 0 0 4.257-4.682c-.1-2.221-1.859-3.739-4.5-3.789-2.769-.052-5.54-.04-8.31-.045a6.671 6.671 0 0 0-.87.108v.314l2.011.144v14.481l-2 .153.01.28zm54.447-15.494c0 .138-.007.275-.01.412a10.643 10.643 0 0 0 1.258.079c.584-.029.815.189.813.785q-.021 6.554 0 13.108c0 .625-.285.778-.841.756a10.292 10.292 0 0 0-1.227.092l.022.286h4.811l.034-.239-1.841-.238v-11.11c.414.456.682.737.933 1.032 2.889 3.406 5.79 6.8 8.645 10.235.445.536.907.674 1.408.354a1.34 1.34 0 0 0 .434-.993c.029-4.271.019-8.543.019-12.814V504l1.9-.2-.033-.253h-4.776l-.013.287a4.069 4.069 0 0 0 .884.066c.957-.133 1.22.265 1.2 1.2-.057 2.673-.018 5.347-.023 8.021 0 .331-.047.662-.093 1.269-.413-.445-.635-.666-.837-.9-2.4-2.839-4.849-5.636-7.16-8.543a3.373 3.373 0 0 0-3.365-1.548 15.446 15.446 0 0 1-2.142.001zm50.157 14.647a9.944 9.944 0 0 0 6.461 1.142c2.265-.348 4.088-1.744 4.421-3.56.38-2.069-.5-3.612-2.75-4.849-.97-.533-1.978-1.008-2.9-1.616a7.158 7.158 0 0 1-1.888-1.655 2.334 2.334 0 0 1 1.484-3.767 3.836 3.836 0 0 1 4.6 3.179 2.4 2.4 0 0 0 .157.651.462.462 0 0 0 .385.2.436.436 0 0 0 .291-.307c.02-1.372.013-2.744.013-4.116l-.244-.038-.617.765a11.319 11.319 0 0 0-6.048-.83 4.614 4.614 0 0 0-3.919 3.069c-.423 1.749.235 3.212 2.076 4.424.786.517 1.666.889 2.469 1.384a17.084 17.084 0 0 1 2.815 1.9 2.677 2.677 0 0 1-.673 4.416 4.121 4.121 0 0 1-5.045-1.372 19.238 19.238 0 0 1-1.014-2.5 4.546 4.546 0 0 0-.494-.738c-.125.259-.351.515-.359.778-.039 1.2-.024 2.412-.011 3.618a6.958 6.958 0 0 0 .175.954zm-19.958-3.791l-.326-.065c-.207.578-.417 1.156-.619 1.735-.677 1.944-1.585 2.6-3.6 2.605-.619 0-1.241-.035-1.857.009-.674.048-.926-.2-.914-.885q.049-2.736 0-5.474c-.014-.724.256-1 .965-.979 1.107.028 2.216.019 3.323-.006a2.84 2.84 0 0 0 .726-.217l-.072-.282c-1.36 0-2.721-.022-4.081.01-.639.015-.872-.234-.856-.858.027-1.075.005-2.15.005-3.226 0-2.727 0-2.71 2.773-2.731a2.978 2.978 0 0 1 2.654.927 13.1 13.1 0 0 1 1.137 2.238c.18.38.318.78.476 1.171l.305-.054c.03-.3.084-.592.086-.889.006-.978-.047-1.957 0-2.932.036-.724-.21-.97-.942-.964-3.649.028-7.3.01-10.948.018a6.289 6.289 0 0 0-.855.117l.009.293 1.836.16v14.5l-1.835.115-.01.312a9.314 9.314 0 0 0 1.05.119c3.161.009 6.321.005 9.482.006 2.179 0 2.179 0 2.2-2.222.006-.619.022-1.238.009-1.857a4.642 4.642 0 0 0-.122-.693zm-31.758-5.436l.347-.1c0-1.645.019-3.29-.034-4.934 0-.137-.491-.368-.755-.37-3.912-.024-7.824-.007-11.736-.026-.65 0-.84.254-.829.874.022 1.271-.03 2.542-.033 3.813a3.553 3.553 0 0 0 .135.693l.245.045c.164-.32.352-.63.488-.962.346-.84.595-1.727 1.016-2.526a2.474 2.474 0 0 1 2.995-1.319v14.459l-2.226.138.02.309h7.96a1.584 1.584 0 0 0-.991-.378c-1.254-.04-1.26-.027-1.26-1.321v-11.834c0-1.542.648-1.967 2.009-1.185a3.912 3.912 0 0 1 1.357 1.463 17.056 17.056 0 0 1 .85 2.279 8.891 8.891 0 0 0 .44.883zm-29.925 10.091a1.043 1.043 0 0 0-.1-.234c-.039-.048-.11-.112-.157-.1-1.062.164-1.253-.627-1.548-1.357-1.743-4.314-3.523-8.613-5.241-12.936a1.27 1.27 0 0 0-1.386-.9c-.733-.015-.918.394-1.126.951-1.6 4.3-3.246 8.578-4.837 12.879-.318.86-.625 1.571-1.74 1.341-.1-.02-.231.128-.348.2l.04.176h4.3l.023-.264-1.95-.236c.6-1.628 1.156-3.185 1.775-4.715a1 1 0 0 1 .769-.4c1.368-.04 2.738-.034 4.106 0 .254.005.656.132.73.311.655 1.572 1.251 3.169 1.9 4.853-.448.028-.7.038-.958.062s-.507.066-.76.1l.018.278z" class="cls-1" transform="translate(-712 -494)"/>
            <path id="Path_4524" d="M724.169 531.288v-24.081h53.057v24.081zm27.407-12.029v6.967l-2.109.108c.094.277.15.594.21.594 2.082.026 4.164.021 6.246.021l.065-.32a4.265 4.265 0 0 0-.869-.336 7.219 7.219 0 0 0-1.127-.014v-14.518c.57 0 1.058.031 1.539-.018.159-.016.3-.24.444-.368-.152-.118-.3-.338-.456-.34-1.981-.023-3.963-.016-6.076-.016.4 1.32 1.544.371 2.122.939v6.29h-7.831v-6.486a10.939 10.939 0 0 0 1.413-.019c.188-.025.348-.261.521-.4-.162-.108-.322-.308-.484-.31q-2.738-.033-5.475 0c-.155 0-.307.225-.46.346.146.128.284.35.44.365.507.047 1.02.018 1.571.018v14.515a11.012 11.012 0 0 0-1.317.014 2.583 2.583 0 0 0-.7.312c.232.142.461.4.7.407 1.694.035 3.389.023 5.084.011a2.88 2.88 0 0 0 .607-.136l.054-.25a4.068 4.068 0 0 0-.854-.342 6.788 6.788 0 0 0-1.1-.015v-7.02zm21.355 7.762l.123-.33c-.247-.136-.513-.414-.737-.383-.778.107-.99-.354-1.219-.943q-2.654-6.815-5.36-13.609c-.118-.3-.52-.718-.726-.685a1.275 1.275 0 0 0-.8.715q-2.492 6.353-4.9 12.737c-.414 1.1-.688 2.238-2.4 1.783.138.34.271.678.412.682 1.415.039 2.831.024 4.347.024-.38-1.172-1.3-.487-1.9-.852.563-1.483 1.119-3.006 1.737-4.5a.954.954 0 0 1 .728-.425c1.433-.041 2.868-.031 4.3-.007.218 0 .566.119.629.274.633 1.546 1.219 3.111 1.86 4.782a8.21 8.21 0 0 0-1.165.015c-.176.029-.328.2-.49.314.138.138.275.393.415.4 1.709.018 3.427.008 5.145.008zM732.854 511.9c0 4.2.016 8.369-.019 12.535a3.758 3.758 0 0 1-.438 1.679 1.324 1.324 0 0 1-1.007.558c-.277 0-.606-.381-.816-.664-.186-.251-.189-.635-.369-.894-.169-.243-.488-.579-.7-.553a2.082 2.082 0 0 0-1.309.527c-.431.553-.174 1.172.339 1.644 1.293 1.19 4.063.955 5.351-.422a5.519 5.519 0 0 0 1.362-3.961c.014-3.161.005-6.322.006-9.482v-1.1c.643 0 1.132.03 1.615-.017.164-.016.308-.224.462-.344-.146-.128-.29-.364-.437-.366-2.079-.024-4.158-.016-6.237-.016l-.133.479c.584.586 1.569.041 2.33.397z" transform="translate(-719.407 -502.039)"/>
            <path id="Path_4525" d="M951.33 518.161a5.082 5.082 0 0 1 .781-.118c2.836.007 5.672-.007 8.507.065a5.439 5.439 0 0 1 2.055.526 3.562 3.562 0 0 1 2.369 3.479 3.869 3.869 0 0 1-2.474 3.652c-.29.135-.589.25-.983.417.164.334.287.623.443.893.9 1.551 1.774 3.114 2.717 4.637a22.288 22.288 0 0 0 1.494 1.923c-1.181 0-2.523.038-3.859-.035-.238-.013-.506-.457-.667-.753q-1.545-2.829-3.04-5.684c-.264-.5-.577-.925-1.191-.746-.26.076-.637.392-.642.607-.05 1.984-.029 3.969-.029 6.07l2.071.142-.017.3h-7.492l-.028-.258a8.1 8.1 0 0 1 1.215-.094c.646.043.853-.222.851-.849q-.025-6.455 0-12.909c0-.677-.22-.95-.9-.894a7.947 7.947 0 0 1-1.172-.07zm5.477 3.987v2.829a.247.247 0 0 0 0 .1c.124.265.185.677.389.768a3.371 3.371 0 0 0 3.383-.955 4.547 4.547 0 0 0 .369-4.8c-.664-1.515-2.034-1.624-3.467-1.559-.5.023-.692.2-.681.695.025.974.009 1.947.007 2.922z" transform="translate(-857.679 -508.635)"/>
            <path id="Path_4526" d="M1127.16 533.651c-1.235 0-2.522.038-3.8-.032-.254-.014-.558-.4-.714-.684-1.052-1.912-2.048-3.854-3.118-5.754a1.819 1.819 0 0 0-.982-.76c-.579-.174-.9.146-.9.788q.021 2.592 0 5.184c0 .58.227.835.821.782.394-.035.793-.007 1.19-.007q0 .247-.008.492c-2.446.016-4.893.023-7.34-.006l-.02-.4 1.833-.15V518.6l-1.82-.129-.016-.295a4.132 4.132 0 0 1 .741-.133c2.836.007 5.673 0 8.508.056a4.8 4.8 0 0 1 3.405 1.49 3.764 3.764 0 0 1-.994 5.911c-.441.26-.925.448-1.522.731.356.617.688 1.2 1.025 1.777.787 1.35 1.55 2.717 2.378 4.042a15.555 15.555 0 0 0 1.333 1.601zm-9.511-11.487c0 .976-.03 1.954.019 2.927a1 1 0 0 0 .413.758 3.425 3.425 0 0 0 3.452-1.031 4.751 4.751 0 0 0 .241-4.829c-.634-1.431-1.967-1.5-3.328-1.466-.6.016-.808.25-.8.81.012.944.003 1.887.003 2.831z" transform="translate(-955.652 -508.637)"/>
            <path id="Path_4527" d="M878.132 533.527h-7.76l-.01-.28 2-.153v-14.487l-2.011-.144v-.314a6.671 6.671 0 0 1 .87-.108c2.77.005 5.541-.007 8.31.045 2.642.05 4.4 1.568 4.5 3.789a4.442 4.442 0 0 1-4.257 4.682c-1.035.1-2.077.165-3.116.183-.565.01-.836.162-.828.773q.035 2.444 0 4.889c-.009.608.253.79.825.774a14.952 14.952 0 0 1 1.532.1zm-2.293-11.2c0 1.007-.036 2.016.024 3.019a.969.969 0 0 0 .512.734 3.019 3.019 0 0 0 3.887-3.047c.014-.357.007-.714.005-1.071-.014-2.45-1.077-3.451-3.524-3.44-.763 0-.946.3-.917.981.04.936.011 1.879.013 2.821z" transform="translate(-808.388 -508.634)"/>
            <path id="Path_4528" d="M1029.36 517.936a15.436 15.436 0 0 0 2.142-.017 3.373 3.373 0 0 1 3.365 1.548c2.312 2.908 4.762 5.7 7.16 8.543.2.239.424.459.837.9.046-.607.092-.938.093-1.269.006-2.674-.034-5.348.023-8.021.02-.934-.242-1.332-1.2-1.2a4.073 4.073 0 0 1-.884-.066l.013-.287h4.776l.033.253-1.9.2v1.152c0 4.271.01 8.543-.019 12.814a1.34 1.34 0 0 1-.434.993c-.5.32-.963.182-1.408-.354-2.855-3.434-5.756-6.829-8.645-10.235-.251-.3-.52-.576-.933-1.032v11.109l1.841.238-.034.24h-4.811l-.022-.286a10.306 10.306 0 0 1 1.227-.092c.556.021.843-.132.841-.756q-.022-6.554 0-13.108c0-.6-.229-.814-.813-.785a10.655 10.655 0 0 1-1.258-.079l.01-.403z" transform="translate(-905.17 -508.534)"/>
            <path id="Path_4529" d="M1156.307 532.246l-.612 1.134a6.968 6.968 0 0 1-.175-.954c-.013-1.206-.028-2.413.011-3.618.009-.263.234-.519.359-.778a4.541 4.541 0 0 1 .494.738 19.247 19.247 0 0 0 1.014 2.5 4.121 4.121 0 0 0 5.045 1.372 2.677 2.677 0 0 0 .673-4.416 17.094 17.094 0 0 0-2.815-1.9c-.8-.495-1.683-.867-2.469-1.384-1.841-1.212-2.5-2.675-2.076-4.424a4.615 4.615 0 0 1 3.919-3.069 11.319 11.319 0 0 1 6.048.83l.617-.765.244.038c0 1.372.007 2.744-.013 4.116a.436.436 0 0 1-.291.307.462.462 0 0 1-.385-.2 2.394 2.394 0 0 1-.157-.651 3.836 3.836 0 0 0-4.6-3.179 2.334 2.334 0 0 0-1.484 3.767 7.161 7.161 0 0 0 1.888 1.655c.921.607 1.929 1.083 2.9 1.616 2.255 1.238 3.13 2.78 2.75 4.849-.333 1.816-2.156 3.213-4.421 3.56a9.943 9.943 0 0 1-6.464-1.144z" transform="translate(-981.96 -508.198)"/>
            <path id="Path_4530" d="M1086.911 528.863a4.656 4.656 0 0 1 .118.7c.012.619 0 1.238-.009 1.857-.022 2.222-.022 2.222-2.2 2.222-3.161 0-6.322 0-9.482-.006a9.3 9.3 0 0 1-1.05-.119l.01-.312 1.835-.115v-14.5l-1.836-.16-.009-.293a6.3 6.3 0 0 1 .855-.117c3.649-.008 7.3.011 10.948-.018.732-.005.978.24.942.964-.048.975.005 1.954 0 2.932 0 .3-.056.593-.086.889l-.305.054c-.157-.391-.3-.791-.476-1.171a13.1 13.1 0 0 0-1.137-2.238 2.978 2.978 0 0 0-2.654-.927c-2.772.021-2.773 0-2.773 2.731 0 1.075.021 2.151-.005 3.226-.016.625.217.873.856.859 1.359-.032 2.72-.01 4.08-.01l.072.282a2.844 2.844 0 0 1-.726.217c-1.107.025-2.216.034-3.323.006-.709-.018-.98.255-.965.979q.056 2.736 0 5.474c-.012.687.24.934.914.885.616-.044 1.238-.008 1.857-.009 2.018 0 2.927-.661 3.6-2.605.2-.58.412-1.157.619-1.735z" transform="translate(-932.522 -508.606)"/>
            <path id="Path_4531" d="M1005.1 523.435a8.892 8.892 0 0 1-.445-.879 17.061 17.061 0 0 0-.85-2.279 3.912 3.912 0 0 0-1.357-1.463c-1.361-.782-2.008-.357-2.009 1.185v11.834c0 1.294.007 1.281 1.26 1.321a1.584 1.584 0 0 1 .991.378h-7.96l-.02-.309 2.226-.138v-14.458a2.474 2.474 0 0 0-2.995 1.319c-.421.8-.67 1.686-1.016 2.526-.136.331-.324.642-.488.962l-.245-.045a3.553 3.553 0 0 1-.135-.693c0-1.271.055-2.542.033-3.813-.01-.62.179-.877.829-.874 3.912.018 7.824 0 11.736.026.264 0 .751.233.755.37.053 1.643.034 3.289.034 4.934z" transform="translate(-882.473 -508.614)"/>
            <path id="Path_4532" d="M923.28 533.5h-6.49l-.018-.278c.253-.034.506-.074.76-.1s.51-.034.958-.062c-.65-1.684-1.246-3.281-1.9-4.853-.074-.179-.477-.306-.73-.311-1.368-.03-2.738-.036-4.106 0a1 1 0 0 0-.769.4c-.619 1.53-1.172 3.087-1.775 4.715l1.95.236-.023.264h-4.3l-.039-.177c.117-.07.25-.218.347-.2 1.115.23 1.422-.481 1.741-1.341 1.591-4.3 3.233-8.583 4.837-12.879.208-.556.393-.966 1.126-.951a1.27 1.27 0 0 1 1.386.9c1.718 4.323 3.5 8.622 5.241 12.936.3.73.486 1.521 1.548 1.357.047-.007.117.057.156.1a1.042 1.042 0 0 1 .1.244zm-7.06-6.315l-2.3-6.043-.287-.02-2.245 6.063z" transform="translate(-830.575 -508.59)"/>
            <path id="Path_4533" d="M775.027 525.185h-7.848v7.02a6.8 6.8 0 0 1 1.1.014 4.067 4.067 0 0 1 .854.342l-.054.25a2.878 2.878 0 0 1-.607.136c-1.695.011-3.39.023-5.084-.011-.234 0-.464-.265-.7-.407a2.582 2.582 0 0 1 .7-.312 11.027 11.027 0 0 1 1.317-.014v-14.514c-.551 0-1.065.029-1.572-.018-.156-.014-.294-.237-.44-.365.153-.12.305-.344.46-.346q2.737-.037 5.475 0c.163 0 .323.2.484.31-.173.14-.333.376-.521.4a10.945 10.945 0 0 1-1.413.019v6.486h7.831v-6.29c-.579-.568-1.725.381-2.122-.939 2.113 0 4.1-.008 6.076.016.153 0 .3.221.456.34-.147.129-.285.352-.444.368-.48.049-.969.018-1.539.018v14.518a7.226 7.226 0 0 1 1.127.014 4.268 4.268 0 0 1 .869.336l-.065.32c-2.082 0-4.164 0-6.246-.021-.06 0-.115-.317-.21-.594l2.109-.108z" class="cls-1" transform="translate(-742.858 -507.965)"/>
            <path id="Path_4534" d="M823.85 533.03c-1.718 0-3.436.01-5.154-.018-.14 0-.277-.258-.415-.4.162-.11.314-.286.49-.314a8.212 8.212 0 0 1 1.165-.015c-.642-1.671-1.228-3.236-1.86-4.782-.063-.155-.411-.27-.629-.274-1.434-.024-2.869-.033-4.3.007a.954.954 0 0 0-.728.425c-.618 1.5-1.174 3.022-1.737 4.5.6.365 1.522-.32 1.9.852-1.516 0-2.932.015-4.347-.024-.141 0-.274-.342-.412-.682 1.712.455 1.986-.681 2.4-1.783q2.4-6.388 4.9-12.737a1.275 1.275 0 0 1 .8-.715c.206-.033.608.388.726.685q2.713 6.791 5.36 13.609c.229.588.441 1.049 1.219.943.224-.031.49.247.737.383zm-6.187-6.7l-2.388-6.295-2.379 6.295z" class="cls-1" transform="translate(-770.327 -508.048)"/>
            <path id="Path_4535" d="M738.777 517.831c-.76-.358-1.746.188-2.331-.4l.133-.479c2.079 0 4.158-.008 6.237.016.147 0 .292.239.437.366-.154.121-.3.329-.462.344-.482.047-.971.017-1.615.017v1.1c0 3.161.008 6.322-.006 9.482a5.52 5.52 0 0 1-1.362 3.961c-1.287 1.377-4.058 1.612-5.351.422-.513-.472-.77-1.091-.339-1.644a2.081 2.081 0 0 1 1.309-.527c.213-.027.531.31.7.553.18.258.183.643.369.894.21.283.539.664.816.664a1.324 1.324 0 0 0 1.007-.558 3.757 3.757 0 0 0 .438-1.679c.036-4.163.02-8.328.02-12.532z" class="cls-1" transform="translate(-725.33 -507.969)"/>
            <path id="Path_4536" d="M965.321 522.88c0-.976.016-1.951-.005-2.926-.011-.5.177-.672.681-.695 1.433-.065 2.8.043 3.467 1.559a4.547 4.547 0 0 1-.369 4.8 3.371 3.371 0 0 1-3.383.955c-.2-.09-.265-.5-.389-.768a.249.249 0 0 1 0-.1q-.003-1.411-.002-2.825z" class="cls-1" transform="translate(-866.192 -509.366)"/>
            <path id="Path_4537" d="M1125.978 522.9c0-.944.01-1.887 0-2.831-.008-.56.2-.794.8-.81 1.361-.036 2.695.035 3.328 1.466a4.751 4.751 0 0 1-.241 4.829 3.425 3.425 0 0 1-3.452 1.031 1 1 0 0 1-.413-.758c-.052-.976-.022-1.954-.022-2.927z" class="cls-1" transform="translate(-963.981 -509.369)"/>
            <path id="Path_4538" d="M884.352 523.065c0-.941.028-1.885-.011-2.825-.029-.682.155-.978.917-.981 2.446-.011 3.51.99 3.524 3.44 0 .357.008.715-.005 1.071a3.019 3.019 0 0 1-3.887 3.047.969.969 0 0 1-.512-.734c-.061-1.002-.025-2.011-.026-3.018z" class="cls-1" transform="translate(-816.901 -509.375)"/>
            <path id="Path_4539" d="M923.351 532.1h-4.836c.769-2.078 1.506-4.071 2.245-6.063l.287.02z" class="cls-1" transform="translate(-837.705 -513.498)"/>
            <path id="Path_4540" d="M825.554 530.922h-4.767l2.379-6.294z" transform="translate(-778.218 -512.643)"/>
        </g>
    </g>
</svg>
