<svg xmlns="http://www.w3.org/2000/svg" width="583" height="637" viewBox="0 0 583 637">
    <defs>
        <style>
            .cls-2{fill:#fff}.cls-3{fill:#ffb27d}.cls-4{fill:#f2c03d}.cls-5{fill:#0f0d3d}.cls-6{fill:#eaeaea}.cls-10{fill:#2a4e96}.cls-11{fill:#233862}
        </style>
    </defs>
    <g id="Group_3989" transform="translate(-55 -869)">
        <path id="Path_5189" fill="rgba(232,230,230,0.12)" d="M291.5 0C452.491 0 583 130.509 583 291.5S452.491 583 291.5 583 0 452.491 0 291.5 130.509 0 291.5 0z" transform="translate(55 869)"/>
        <path id="Rectangle_4279" d="M0 0H498V153H0z" class="cls-2" transform="translate(101 1353)"/>
        <g id="Group_3262" transform="translate(-1133.197 433.953)">
            <path id="Path_4685" d="M1867.708 607.812s-8.071-14.342 0-17.26 11.722-.227 12.106 3.04-3.075 16.141-3.075 16.141z" class="cls-3" transform="translate(-303.161 -42.536)"/>
            <path id="Path_4686" d="M1740.713 718.357a260.988 260.988 0 0 1-40.455 4.155 225.586 225.586 0 0 1-31.1-1.4q-3.667-.421-7.049-.938c-23.824-3.612-36.98-10.019-36.98-10.019s21.769-45.566 39.351-43.818c20.63 2.056 55.589 20.569 59.064 15.377 3.912-5.85 7.187-56.016 7.187-56.016 9.147-6.264 14.609.338 14.609.338s17.872 88.264-4.627 92.321z" class="cls-4" transform="translate(-169.697 -61.354)"/>
            <path id="Path_4687" d="M1789.536 807.293a260.976 260.976 0 0 1-40.455 4.155 225.59 225.59 0 0 1-31.1-1.4c-5.488-17.456-9.436-35.285 1.6-24.535 19.481 18.959 69.955 21.78 69.955 21.78z" class="cls-4" transform="translate(-218.52 -150.289)"/>
            <path id="Path_4688" d="M1620.992 1663.314s-1.566 18.114 2.263 20l49-.1s0-5.655-7.871-6.912-21.7-5.865-24.038-16.129-19.354 3.141-19.354 3.141z" class="cls-5" transform="translate(-167.207 -638.406)"/>
            <path id="Path_4689" d="M1624.071 1103.891c-.242 11.845-.811 24.063-1.925 35.043-5.292 52.1-7.153 115.056-7.914 127.193-1.318 21.069-5.48 54.728-5.48 54.728s-8.255 7.837-24.347 4.1c0 0-13.332-48.479-16.311-99.526-.046-.837-.092-1.68-.135-2.521-.346-6.749-.707-14.466-1.076-22.787-2.452-55.735-5.115-138.531-5.115-138.531l61.492-14.439s1.414 27.212.811 56.74z" class="cls-6" transform="translate(-134.31 -298.221)"/>
            <path id="Path_4690" fill="#bababa" d="M1624.071 1103.891c-15.584 26.887-45.289 76.424-57.188 96.228-2.452-55.735-5.115-138.531-5.115-138.531l61.492-14.439s1.414 27.214.811 56.742z" transform="translate(-134.31 -298.221)"/>
            <path id="Path_4691" d="M1334.06 1057.7s-10.006 11.768-10.906 15.03-2.5 15.019-1.645 18.551 7.511-9.85 9.931-11.279-1.816 5.323-.989 6.449 5.606-3.941 7.469-5.655 1.678-10.944 3.916-16.4-7.776-6.696-7.776-6.696z" class="cls-3" transform="translate(0 -304.112)"/>
            <path id="Path_4692" d="M1335.77 1620.788s-8.722 7.96-7.02 13.615 9.573 9.425 10.636 16.338 5.318 10.682 9.147 10.682h18.255s2.818-4.864-3.988-6.331-9.374-9.588-8.949-17.129a132.92 132.92 0 0 0-.638-17.595l-14.465-3.351z" class="cls-5" transform="translate(-4.057 -616.467)"/>
            <path id="Path_4693" d="M1492.474 1059.037s-57.564 123.164-88.2 177.205-40.205 69.123-40.205 69.123-17.55-6.912-19.145-11.625c0 0 11.714-104.329 32.228-129.762 11.591-14.37 25.208-57.5 25.846-72.579s14.086-51.077 14.086-51.077z" class="cls-6" transform="translate(-13.215 -294.409)"/>
            <path id="Path_4694" d="M1587.241 869.9s-22.892 15.3-55.29 13.884c-14.219-.621-42.423-4.653-46.975-15.961-1.068-2.655-.285-6.024 1.318-11.2 4.161-13.442 13.86-39.036 10.931-95.787a93.167 93.167 0 0 1 .381-14.893c3.052-27.953 19.072-44.508 34.556-49.917 37.761-13.2 50.35 5.087 50.35 5.087s16.692 13.224 19.208 40.822c5.027 55.21-14.479 127.965-14.479 127.965z" class="cls-4" transform="translate(-91.152 -99.466)"/>
            <path id="Path_4695" d="M1617.52 650.66s17.326 10.539 36.119 7.558c0 0 3.715-.944 1.889-5.306a55.827 55.827 0 0 0 1.668-5.819 87.85 87.85 0 0 0 2.152-9.494l-10.665-11.21-10.1-10.712c-2.791 25.604-21.063 34.983-21.063 34.983z" class="cls-3" transform="translate(-165.445 -57.264)"/>
            <path id="Path_4696" fill="#ed985f" d="M1661.557 637.668s5.8 15.513 20.232 21.705c1.648-6.02 2.72-12.318 2.72-12.318l-11.233-8.385z" transform="translate(-190.038 -69.545)"/>
            <path id="Path_4697" d="M1691.378 595.708s-33.074 4.134-35.4-16.19-8.153-33.478 12.865-36.977 26.014 3.806 28.465 10.406 2.613 41.162-5.93 42.761z" class="cls-3" transform="translate(-185.51 -15.915)"/>
            <path id="Path_4698" fill="#2c3a64" d="M1632.39 523.323c-.286-.354-.963-.656-2.492-.8a6.219 6.219 0 0 1 2.892-.7c.4-2.118 1.676-5.845 5.377-6.622a4.6 4.6 0 0 0-2.352 3.23c4.41-4.2 13.627-7.03 38.743-4.089 33.1 3.876 21.355 24.718 16.961 27.09s-14.95-4.985-22.982-4.652-9.993 11.847-12.769 13.332-1.6-1.282-5.215-3.082-4.192 4.277-3.281 8.277-4.336 9.033-4.336 9.033l-4.9-5.689c-4.9-5.689-8.825-29.152-6.318-34.027.226-.424.445-.863.672-1.301z" transform="translate(-172.358)"/>
            <g id="Group_3261" transform="translate(1501.724 529.484)">
                <path id="Path_4699" d="M1792.8 594.136l-56.147.5-.383-8.447 55.973-4.338z" class="cls-10" transform="translate(-1733.485 -567.857)"/>
                <path id="Path_4700" d="M1882.088 588.588l-61.131.884-.7-15.357 60.956-4.723z" class="cls-10" transform="translate(-1780.391 -560.899)"/>
                <path id="Path_4701" d="M1987.251 583.548l-51.55.064-.942-20.732 51.341-4.671z" class="cls-11" transform="translate(-1844.333 -554.654)"/>
                <path id="Path_4702" d="M2049.968 582.552a2.882 2.882 0 0 0 2.749-3.01l-1.21-26.632a2.882 2.882 0 0 0-3.01-2.749 2.882 2.882 0 0 0-2.749 3.01l1.209 26.632a2.883 2.883 0 0 0 3.011 2.749z" class="cls-11" transform="translate(-1906.314 -550.158)"/>
                <path id="Path_4703" d="M1732.957 599.671a2.562 2.562 0 0 1-2.676-2.443l-.314-6.911a2.562 2.562 0 0 1 2.443-2.676 2.562 2.562 0 0 1 2.676 2.443l.314 6.916a2.562 2.562 0 0 1-2.443 2.671z" class="cls-10" transform="translate(-1729.965 -571.089)"/>
            </g>
            <path id="Path_4704" d="M1488.582 925.74c4.161-13.442 13.859-39.036 10.931-95.787a93.138 93.138 0 0 1 .381-14.893c12.427-1.068 31.423 12.367 31.423 12.367s-11.694 71.325-42.735 98.313z" class="cls-4" transform="translate(-93.44 -168.577)"/>
            <path id="Path_4705" d="M1463.182 694.905s-31.865 5.477-48.485 25.767-43.354 48.9-49.675 58.916-23.868 78.2-23.868 78.2 1.158 2.192 6 3.468a11.413 11.413 0 0 0 7.993-.672s23.248-39.787 32-59.664c3.635-8.258 66.506-40.963 90.141-37.574 9.278 1.326-14.106-68.441-14.106-68.441z" class="cls-4" transform="translate(-11.108 -101.509)"/>
            <path id="Path_4706" d="M1863.541 573.525s6.854 4.192 10.953 2.419 3.738-3.4 3.738-3.4-12.385-3.435-14.691.981z" class="cls-3" transform="translate(-302.837 -32.466)"/>
            <path id="Path_4707" d="M1530.7 743.27s-13.984 88.289-113.2 113.994l-10.807 21.324 18.987 3.213s112.958-32.724 111.437-140.093z" class="cls-2" transform="translate(-47.707 -127.647)"/>
            <path id="Path_4708" fill="#a02e2e" d="M1676.846 713.329l-4.58.448v6.63l6.748 7.014 6.416-1.561v-9.2l-4.612-3.331z" transform="translate(-196.019 -111.798)"/>
            <path id="Path_4709" fill="#002033" d="M1623.512 673.566s-4.433 1-14.568 9.422c0 0 10.079 21.395 31.346 23.957 0 0-.344-9.929 1.194-15.822 0 0-16.855-6.033-17.972-17.557z" transform="translate(-160.656 -89.592)"/>
            <path id="Path_4710" fill="#01202e" d="M1682.639 705.888s10.377 5.509 11.145 14.092c0 0 3.967-6.284 2.817-10.637s-4.707-9.339-4.707-9.339.353 5.243-9.255 5.884z" transform="translate(-201.811 -104.357)"/>
        </g>
    </g>
</svg>
